:SAMPLES-PER-SECOND 30
:FULLY-SPECIFIED
:DEGREES
486
root  -7.55979 34.5093 -0.587412 8.40406 35.4087 -1.9996
LeftUpLeg  -13.1771 5.41064 5.87668
LeftLeg  5.18603 -0.858724 -0.0231462
LeftFoot  8.73279 0.00870326 -0.122746
LeftToes  -21.9541 6.91067e-007 1.07128e-007
Spine  2.63145 1.62947 -1.11742
Spine1  5.2278 3.31851 -2.17819
RightShoulder  -0.0154593 4.01105 -2.02219
RightArm  46.7134 -40.857 48.4554
RightForeArm  32.4265 78.7443 118.506
RightHand  9.94087 -36.5998 -29.0928
LeftShoulder1  0.00307475 1.07084 -5.53832
LeftArm  56.1023 33.561 -32.767
LeftForeArm  67.3923 -73.5104 -143.546
LeftHand  8.87716 35.2727 27.0675
HEad  -21.1778 -7.90475 1.15582
RightUpLeg  -8.36977 -9.9527 -0.640029
RightLeg  5.57445 11.6991 0.387211
RightFoot  3.96774 -0.00269971 0.81526
RightToes  -30.6762 -0.148605 -0.256638
487
root  -7.9504 34.4889 -0.592895 8.52142 35.7039 -1.93593
LeftUpLeg  -13.5469 5.13092 6.33064
LeftLeg  4.78004 -0.746351 -0.0148576
LeftFoot  9.67549 0.0101446 -0.117715
LeftToes  -22.7408 6.91067e-007 1.07128e-007
Spine  2.7377 1.523 -0.798348
Spine1  5.45241 3.08939 -1.53888
RightShoulder  -0.0152441 3.86609 -1.90494
RightArm  46.84 -40.5205 47.978
RightForeArm  31.7566 78.8584 117.369
RightHand  9.92325 -36.5506 -29.0831
LeftShoulder1  0.00334629 1.09434 -5.47149
LeftArm  55.8739 33.6397 -33.5231
LeftForeArm  66.9862 -74.1503 -141.711
LeftHand  8.27988 35.5376 25.081
HEad  -21.493 -7.14484 0.163011
RightUpLeg  -8.96218 -10.5301 -0.0413182
RightLeg  5.89972 12.0376 0.466252
RightFoot  3.68629 -0.00132702 0.780336
RightToes  -30.009 -0.143983 -0.252029
488
root  -8.35221 34.445 -0.618174 8.34571 36.2808 -2.00219
LeftUpLeg  -14.06 4.96685 6.87731
LeftLeg  4.91187 -1.07468 -0.0236398
LeftFoot  10.3071 0.0166436 -0.18455
LeftToes  -23.5983 6.91067e-007 1.07128e-007
Spine  2.96873 1.34383 -0.383601
Spine1  5.92859 2.7086 -0.708839
RightShoulder  -0.0150514 3.75797 -1.85064
RightArm  46.5317 -40.1374 47.5321
RightForeArm  30.5922 79.0298 115.527
RightHand  9.77535 -36.5651 -28.649
LeftShoulder1  0.00359016 0.99386 -5.38724
LeftArm  55.0741 33.6743 -34.9473
LeftForeArm  64.5781 -75.3521 -137.699
LeftHand  7.49665 35.7891 22.5657
HEad  -21.9009 -6.41605 -0.863624
RightUpLeg  -9.29876 -11.5138 0.645121
RightLeg  6.11869 12.5548 0.533739
RightFoot  3.30831 0.000647188 0.731848
RightToes  -29.3668 -0.139585 -0.247541
489
root  -8.74847 34.3925 -0.654554 7.97404 37.0566 -2.14466
LeftUpLeg  -14.6193 4.94263 7.43882
LeftLeg  5.30935 -1.7798 -0.051174
LeftFoot  10.794 0.0307862 -0.325874
LeftToes  -24.4557 6.91067e-007 1.07128e-007
Spine  3.33958 1.14083 0.0572986
Spine1  6.68299 2.27405 0.173965
RightShoulder  -0.014938 3.83142 -1.67511
RightArm  45.343 -39.8132 47.1971
RightForeArm  27.8869 79.251 112.897
RightHand  9.81004 -36.7335 -28.611
LeftShoulder1  0.00380703 0.852082 -5.30522
LeftArm  53.9286 33.2098 -36.8016
LeftForeArm  60.0102 -76.7174 -131.844
LeftHand  6.77825 36.1069 20.2217
HEad  -22.3591 -5.79108 -1.78448
RightUpLeg  -9.36645 -12.3375 1.37285
RightLeg  6.05963 12.6183 0.523474
RightFoot  3.02679 0.0030636 0.673205
RightToes  -28.8374 -0.135997 -0.243805
490
root  -9.12658 34.3529 -0.680298 8.08111 37.6137 -2.0369
LeftUpLeg  -15.2365 4.94523 7.76844
LeftLeg  5.27954 -2.2768 -0.0640985
LeftFoot  11.5499 0.0454083 -0.448996
LeftToes  -25.1551 6.91067e-007 1.07128e-007
Spine  3.64355 1.0573 0.313531
Spine1  7.29727 2.08751 0.689353
RightShoulder  -0.0148418 3.86962 -1.40428
RightArm  44.3003 -39.5029 47.1021
RightForeArm  25.751 79.3979 110.918
RightHand  10.0087 -36.6798 -29.2196
LeftShoulder1  0.00399758 0.540518 -5.32827
LeftArm  53.4477 32.6257 -37.6214
LeftForeArm  57.9893 -77.0437 -130.166
LeftHand  6.8502 36.4238 20.2466
HEad  -22.8315 -5.22871 -2.1953
RightUpLeg  -9.57038 -12.3581 1.88054
RightLeg  5.59606 12.1252 0.405708
RightFoot  2.96293 0.00419491 0.632154
RightToes  -28.5795 -0.134024 -0.241735
491
root  -9.4801 34.3384 -0.699641 8.47656 38.17 -2.06512
LeftUpLeg  -16.2052 5.27382 8.06705
LeftLeg  5.26056 -2.95907 -0.0821262
LeftFoot  12.314 0.0674328 -0.625102
LeftToes  -25.7064 6.91067e-007 1.07128e-007
Spine  3.79601 0.988496 0.583408
Spine1  7.60627 1.92863 1.23019
RightShoulder  -0.0147402 3.90372 -1.34457
RightArm  44.3265 -39.2226 46.5884
RightForeArm  27.5574 79.2504 112.921
RightHand  10.2079 -36.4806 -29.9534
LeftShoulder1  0.00416248 0.469894 -5.24455
LeftArm  53.5517 32.4 -38.1104
LeftForeArm  58.0563 -76.9989 -130.41
LeftHand  6.94195 36.4095 20.5259
HEad  -22.9316 -4.60916 -2.40245
RightUpLeg  -10.133 -12.8797 2.53979
RightLeg  5.0959 12.2908 0.304568
RightFoot  3.2037 -0.00131493 0.692766
RightToes  -28.6581 -0.13281 -0.240454
492
root  -9.78294 34.3436 -0.716214 9.23805 38.9086 -1.85685
LeftUpLeg  -17.375 5.53695 8.02673
LeftLeg  5.21986 -3.54717 -0.0957844
LeftFoot  13.1002 0.0917521 -0.79908
LeftToes  -25.8905 6.91067e-007 1.07128e-007
Spine  3.74462 0.856311 0.797905
Spine1  7.50391 1.64856 1.65265
RightShoulder  -0.0146584 3.98307 -1.38641
RightArm  44.702 -39.3557 45.8172
RightForeArm  31.6206 78.8816 117.129
RightHand  10.338 -36.2718 -30.5039
LeftShoulder1  0.0043024 0.483634 -5.24115
LeftArm  53.6232 32.8048 -38.1484
LeftForeArm  59.0513 -76.8074 -131.404
LeftHand  6.95296 36.4502 20.534
HEad  -22.1194 -4.04061 -2.59589
RightUpLeg  -11.2496 -15.1536 3.19254
RightLeg  5.36069 13.945 0.40899
RightFoot  3.09298 -0.00747924 0.763059
RightToes  -28.2521 -0.131498 -0.23904
493
root  -10.0324 34.3722 -0.705404 10.0391 39.476 -1.37049
LeftUpLeg  -18.1841 6.06677 7.62017
LeftLeg  4.95373 -3.86181 -0.0862495
LeftFoot  14.0396 0.114895 -0.933066
LeftToes  -25.5548 6.91067e-007 1.07128e-007
Spine  3.69084 0.833872 0.874107
Spine1  7.39578 1.59837 1.80376
RightShoulder  -0.0145748 3.97219 -1.36572
RightArm  44.6874 -39.8785 45.313
RightForeArm  35.8429 78.3641 121.838
RightHand  10.6192 -35.9729 -31.5737
LeftShoulder1  0.00441802 0.604051 -5.17925
LeftArm  53.4334 33.3925 -37.8982
LeftForeArm  61.5569 -76.2895 -133.872
LeftHand  6.92263 36.2406 20.5705
HEad  -20.5782 -3.8453 -2.61393
RightUpLeg  -12.0055 -16.3895 3.49862
RightLeg  5.32552 14.6132 0.419423
RightFoot  3.15551 -0.0125911 0.817481
RightToes  -27.8249 -0.129233 -0.236568
494
root  -10.2323 34.418 -0.687944 10.7274 39.8317 -0.896373
LeftUpLeg  -18.9461 7.58021 6.66546
LeftLeg  4.99591 -2.44799 -0.0567143
LeftFoot  14.9759 0.0826825 -0.62906
LeftToes  -25.2318 6.91067e-007 1.07128e-007
Spine  3.63981 0.901833 0.920593
Spine1  7.29401 1.73147 1.90001
RightShoulder  -0.0144812 3.86276 -1.34021
RightArm  44.5932 -40.4067 45.041
RightForeArm  38.2262 78.0177 124.472
RightHand  10.8849 -35.7619 -32.5302
LeftShoulder1  0.00451001 0.800596 -5.03412
LeftArm  52.9535 34.1544 -37.9018
LeftForeArm  63.5497 -75.9857 -135.177
LeftHand  6.72679 36.0149 20.123
HEad  -18.2036 -3.84084 -2.60934
RightUpLeg  -12.3496 -16.2503 3.57288
RightLeg  4.79901 14.1828 0.278095
RightFoot  3.59335 -0.0195183 0.901476
RightToes  -27.1611 -0.124869 -0.231759
495
root  -10.4096 34.4549 -0.670637 11.1905 40.2144 -0.234048
LeftUpLeg  -19.5946 9.4586 5.30543
LeftLeg  5.52656 -0.759226 -0.0250889
LeftFoot  15.7464 0.0281922 -0.203879
LeftToes  -24.6738 6.91067e-007 1.07128e-007
Spine  3.63347 0.959744 0.911849
Spine1  7.28135 1.84717 1.89034
RightShoulder  -0.0144215 3.81052 -1.26665
RightArm  44.3125 -40.8123 45.0435
RightForeArm  38.6545 78.0395 124.3
RightHand  10.7324 -35.731 -32.1197
LeftShoulder1  0.00457905 0.820281 -4.82243
LeftArm  52.3475 34.8123 -38.1982
LeftForeArm  63.9426 -76.1285 -134.547
LeftHand  6.33452 35.7317 19.1091
HEad  -15.1724 -4.0807 -2.66705
RightUpLeg  -12.3103 -15.4698 3.31116
RightLeg  4.29388 12.9114 0.140413
RightFoot  3.99093 -0.0212432 0.907075
RightToes  -26.3833 -0.119826 -0.22606
496
root  -10.5554 34.468 -0.662695 11.2024 40.6525 0.149867
LeftUpLeg  -19.7666 10.5668 4.39218
LeftLeg  5.87309 0.451951 0.0166173
LeftFoot  16.0354 -0.0177402 0.125937
LeftToes  -24.2428 6.91067e-007 1.07128e-007
Spine  3.68239 0.997557 0.949727
Spine1  7.38047 1.91816 1.97559
RightShoulder  -0.0143751 3.77036 -1.23084
RightArm  43.9459 -40.7947 45.2307
RightForeArm  36.6344 78.4041 121.475
RightHand  10.4464 -36.0509 -31.0079
LeftShoulder1  0.0046258 0.777435 -4.67457
LeftArm  51.8706 35.0967 -38.8546
LeftForeArm  62.7044 -76.5211 -132.758
LeftHand  6.18197 35.5137 18.7701
HEad  -11.3773 -4.3356 -2.93495
RightUpLeg  -12.1784 -14.9506 3.16651
RightLeg  4.26257 11.8422 0.122363
RightFoot  4.09272 -0.0187319 0.85021
RightToes  -25.6163 -0.114929 -0.220374
497
root  -10.6797 34.4488 -0.654827 10.6873 41.2409 0.334007
LeftUpLeg  -19.5139 11.0899 3.99484
LeftLeg  6.47382 0.469051 0.0221295
LeftFoot  15.5511 -0.0172063 0.126
LeftToes  -23.5864 6.91067e-007 1.07128e-007
Spine  3.864 0.986466 1.04988
Spine1  7.74618 1.88394 2.18702
RightShoulder  -0.0143514 3.81257 -1.32411
RightArm  43.6071 -40.3368 45.5484
RightForeArm  34.4198 78.714 118.731
RightHand  10.2817 -36.1696 -30.4312
LeftShoulder1  0.00465095 0.595351 -4.48959
LeftArm  51.3646 34.8954 -39.899
LeftForeArm  59.9992 -77.236 -129.029
LeftHand  5.84299 35.407 17.7939
HEad  -7.05161 -4.5412 -3.35262
RightUpLeg  -11.6161 -14.6272 3.03613
RightLeg  4.26436 10.8873 0.112836
RightFoot  4.07038 -0.0147675 0.775013
RightToes  -25.4944 -0.112986 -0.219464
498
root  -10.7733 34.4207 -0.645508 10.032 42.0514 0.255839
LeftUpLeg  -19.2001 10.909 3.99228
LeftLeg  7.1583 0.297166 0.0172286
LeftFoot  14.6804 -0.0118666 0.0753987
LeftToes  -22.9443 6.91067e-007 1.07128e-007
Spine  4.1476 0.924302 1.22016
Spine1  8.31449 1.7398 2.51147
RightShoulder  -0.0143289 3.81695 -1.4231
RightArm  43.2113 -39.6566 45.7186
RightForeArm  33.8907 78.8146 117.741
RightHand  10.2195 -36.2394 -30.1926
LeftShoulder1  0.00465517 0.451175 -4.38213
LeftArm  50.8408 34.1123 -40.9201
LeftForeArm  56.9773 -77.9013 -124.821
LeftHand  5.43337 35.5895 16.4465
HEad  -3.07726 -4.90047 -3.72168
RightUpLeg  -11.1687 -15.1251 3.15953
RightLeg  4.50084 10.5373 0.152501
RightFoot  3.88093 -0.0114241 0.714605
RightToes  -25.1631 -0.112071 -0.216718
499
root  -10.8505 34.4061 -0.650879 9.80853 42.7447 0.262075
LeftUpLeg  -19.1494 10.5245 3.93815
LeftLeg  7.78059 0.251929 0.0171565
LeftFoot  13.9313 -0.00744476 0.0609255
LeftToes  -22.733 6.91067e-007 1.07128e-007
Spine  4.39858 0.847797 1.29886
Spine1  8.81626 1.57621 2.66356
RightShoulder  -0.0143152 3.78994 -1.45785
RightArm  42.7394 -39.249 45.8364
RightForeArm  34.7524 78.7376 118.486
RightHand  10.2492 -36.1487 -30.3559
LeftShoulder1  0.00463912 0.324158 -4.39114
LeftArm  50.2408 33.7337 -41.2248
LeftForeArm  56.55 -78.0022 -124.097
LeftHand  5.31629 35.7839 15.9945
HEad  -1.11534 -4.94682 -4.28422
RightUpLeg  -11.1708 -15.2011 3.22949
RightLeg  4.88202 9.90321 0.208992
RightFoot  3.67714 -0.00670233 0.635406
RightToes  -24.771 -0.110754 -0.214032
